<svg width="93" height="20" viewBox="0 0 93 20" fill="none" xmlns="http://www.w3.org/2000/svg">
<path d="M13.3179 9.55007C13.1834 9.6438 13.0653 9.7593 12.969 9.89126C12.8411 10.0664 12.7551 10.2666 12.7176 10.4758L11.7351 16.0097C11.504 17.3142 9.71709 17.6548 9.09103 16.5124L8.44785 15.3384L9.53753 11.6707C9.59842 11.4671 9.70659 11.2779 9.8534 11.1183C9.98187 10.9787 10.137 10.8647 10.3095 10.783L10.3845 10.75L13.3179 9.55007ZM16.3924 7.8555C16.2564 8.17527 15.9942 8.45579 15.601 8.61663L13.3179 9.55007C13.3618 9.51943 13.4077 9.49133 13.455 9.46546L16.3924 7.8555ZM3.25731 2.62636C3.49984 2.51937 3.76562 2.47906 4.02462 2.51026L17.9699 4.19433C19.3088 4.35561 19.5996 6.09806 18.3976 6.75687L16.3924 7.8555C16.6951 7.14355 16.3708 6.23684 15.4654 6.02198L2.74536 2.99998C2.88639 2.84124 3.06087 2.71303 3.25731 2.62636Z" fill="#7F56D9"/>
<path d="M1.02357 2.80384C1.27662 2.7249 1.5453 2.71496 1.79913 2.7752L15.4653 6.02222C16.7774 6.33359 16.8695 8.09802 15.6007 8.61691L10.3843 10.7502L10.3095 10.7833C10.137 10.865 9.98167 10.9789 9.85318 11.1186C9.70637 11.2782 9.59834 11.4671 9.53745 11.6708L7.93659 17.0586C7.56551 18.3087 5.80218 18.4607 5.27684 17.3151L5.25287 17.2596L0.0970213 4.64894C0.00126366 4.41474 -0.0242377 4.15711 0.0233062 3.90513C0.0708704 3.65315 0.189682 3.41666 0.366348 3.22215C0.543013 3.02766 0.770564 2.88278 1.02357 2.80384ZM6.50069 15.5051L7.79382 11.1528L7.79426 11.1512L7.79493 11.1496C7.93653 10.6761 8.185 10.2454 8.51476 9.88694L8.57738 9.82077C8.89503 9.49421 9.27694 9.23776 9.69687 9.0663L13.6331 7.45634L2.08844 4.71333L6.50069 15.5051Z" fill="#11033A"/>
<path d="M27.8703 16.0103C24.5463 16.0103 22.4651 13.8136 22.4651 10.3168C22.4651 6.8648 24.6661 4.59336 27.9751 4.59336C30.7451 4.59336 32.7365 6.17739 33.0808 8.65804H30.5205C30.1911 7.55221 29.2478 6.92458 27.9152 6.92458C26.1185 6.92458 25.0254 8.19479 25.0254 10.3018C25.0254 12.379 26.1334 13.6791 27.9152 13.6791C29.2777 13.6791 30.2809 13.0067 30.5804 11.9158H33.0958C32.7065 14.3815 30.6403 16.0103 27.8703 16.0103ZM36.6662 15.831H34.3604V4.56348H36.6662V15.831ZM39.534 7.19356C38.8003 7.19356 38.2164 6.61076 38.2164 5.87852C38.2164 5.14628 38.8003 4.57842 39.534 4.57842C40.2527 4.57842 40.8366 5.14628 40.8366 5.87852C40.8366 6.61076 40.2527 7.19356 39.534 7.19356ZM38.3961 15.831V8.35917H40.7019V15.831H38.3961ZM42.0275 12.0652C42.0275 9.76388 43.6146 8.12007 45.8605 8.12007C48.0765 8.12007 49.5439 9.33051 49.6936 11.2881H47.3728C47.2081 10.5409 46.7439 10.1823 45.9504 10.1823C44.9771 10.1823 44.3483 10.9145 44.3483 12.0652C44.3483 13.2607 44.9322 13.9631 45.9204 13.9631C46.729 13.9631 47.2231 13.5895 47.3728 12.8572H49.6936C49.5439 14.7401 48.0166 16.0253 45.9204 16.0253C43.5547 16.0253 42.0275 14.4562 42.0275 12.0652ZM53.2621 15.831H50.9563V4.56348H53.2621V11.049L55.6878 8.35917H58.5775L55.7626 11.318L58.4877 15.831H55.8225L54.1455 13.0365L53.2621 13.9631V15.831Z" fill="#11033A"/>
<path d="M58.5706 6.67058V4.90723H66.8955V6.67058H63.6913V15.8311H61.7747V6.67058H58.5706ZM70.1425 16.0253C67.9415 16.0253 66.3993 14.4263 66.3993 12.14C66.3993 9.8237 67.9115 8.22472 70.0826 8.22472C72.2986 8.22472 73.706 9.70415 73.706 12.0055V12.5584L68.1361 12.5733C68.2709 13.8734 68.9596 14.531 70.1724 14.531C71.1756 14.531 71.8344 14.1424 72.044 13.4401H73.736C73.4215 15.054 72.074 16.0253 70.1425 16.0253ZM70.0976 9.71909C69.0195 9.71909 68.3607 10.3019 68.181 11.4077H71.8943C71.8943 10.3916 71.1906 9.71909 70.0976 9.71909ZM79.8095 8.41899V10.1076H79.1358C77.8182 10.1076 76.9946 10.81 76.9946 12.2446V15.8311H75.168V8.46382H76.8898L76.9946 9.53977C77.3091 8.80753 78.0128 8.31439 79.001 8.31439C79.2556 8.31439 79.5101 8.34427 79.8095 8.41899ZM82.8727 15.8311H81.046V8.44888H82.723L82.8727 9.31561C83.247 8.70292 83.9957 8.22472 85.0587 8.22472C86.1817 8.22472 86.9603 8.77764 87.3496 9.62943C87.7239 8.77764 88.5923 8.22472 89.7153 8.22472C91.512 8.22472 92.5002 9.30067 92.5002 11.0042V15.8311H90.6885V11.4824C90.6885 10.4214 90.1196 9.86853 89.2511 9.86853C88.3677 9.86853 87.694 10.4364 87.694 11.6468V15.8311H85.8673V11.4675C85.8673 10.4364 85.3133 9.88347 84.4448 9.88347C83.5764 9.88347 82.8727 10.4513 82.8727 11.6468V15.8311Z" fill="#11033A"/>
</svg>
